<svg xmlns="http://www.w3.org/2000/svg" viewBox="0 0 64 64" role="img" aria-label="ConnectWorks">
  <!-- TODO: SVG recreation of the ConnectWorks logo (C + P + RJ45).
       Replace with the official file for pixel-perfect fidelity. -->
  <defs>
    <linearGradient id="cwBlueF" x1="0" y1="0" x2="1" y2="1">
      <stop offset="0" stop-color="#3B8BFF"/><stop offset="1" stop-color="#0B3FA8"/>
    </linearGradient>
  </defs>
  <rect x="2" y="2" width="60" height="60" rx="15" fill="#ffffff" stroke="#E2E8F0" stroke-width="1.5"/>
  <path d="M31 14 A19 19 0 1 0 31 50" fill="none" stroke="url(#cwBlueF)" stroke-width="9" stroke-linecap="round"/>
  <path fill="#0A0E14" fill-rule="evenodd" d="M31 21a13 13 0 1 0 26 0a13 13 0 1 0 -26 0ZM37 21a7 7 0 1 1 14 0a7 7 0 1 1 -14 0Z"/>
  <rect x="48.5" y="14" width="8.5" height="42" rx="4.2" fill="#0A0E14"/>
  <rect x="27" y="1.5" width="14" height="10.5" rx="1.6" fill="#0A0E14"/>
  <rect x="31" y="10.5" width="6" height="3.4" rx="1" fill="#0A0E14"/>
  <g fill="#F5C24B"><rect x="28.6" y="2.7" width="1.5" height="3" rx=".5"/><rect x="31.1" y="2.7" width="1.5" height="3" rx=".5"/><rect x="33.6" y="2.7" width="1.5" height="3" rx=".5"/><rect x="36.1" y="2.7" width="1.5" height="3" rx=".5"/></g>
</svg>
