<svg xmlns="http://www.w3.org/2000/svg" viewBox="0 0 1200 630" role="img" aria-label="ConnectWorks Low Voltage Solutions">
  <defs>
    <linearGradient id="bg" x1="0" y1="0" x2="1" y2="1">
      <stop offset="0" stop-color="#060B16"/><stop offset=".55" stop-color="#0A1B3D"/><stop offset="1" stop-color="#0B3E9E"/>
    </linearGradient>
    <linearGradient id="cwBlue" x1="0" y1="0" x2="1" y2="1"><stop offset="0" stop-color="#3B8BFF"/><stop offset="1" stop-color="#0B3FA8"/></linearGradient>
    <linearGradient id="cwDark" x1="0" y1="0" x2="1" y2="1"><stop offset="0" stop-color="#48566a"/><stop offset="1" stop-color="#0A0E14"/></linearGradient>
    <radialGradient id="glow" cx="80%" cy="26%" r="55%"><stop offset="0" stop-color="#38BDF8" stop-opacity=".32"/><stop offset="1" stop-color="#38BDF8" stop-opacity="0"/></radialGradient>
    <pattern id="grid" width="44" height="44" patternUnits="userSpaceOnUse"><path d="M44 0H0V44" fill="none" stroke="#7DD3FC" stroke-opacity=".08" stroke-width="1"/></pattern>
  </defs>
  <rect width="1200" height="630" fill="url(#bg)"/>
  <rect width="1200" height="630" fill="url(#grid)"/>
  <rect width="1200" height="630" fill="url(#glow)"/>

  <!-- brand mark (light parts so the dark "P"/plug show on the dark background) -->
  <g transform="translate(96,86) scale(1.5)">
    <path d="M31 14 A19 19 0 1 0 31 50" fill="none" stroke="url(#cwBlue)" stroke-width="9" stroke-linecap="round"/>
    <path fill="#E2E8F0" fill-rule="evenodd" d="M31 21a13 13 0 1 0 26 0a13 13 0 1 0 -26 0ZM37 21a7 7 0 1 1 14 0a7 7 0 1 1 -14 0Z"/>
    <rect x="48.5" y="14" width="8.5" height="42" rx="4.2" fill="#E2E8F0"/>
    <rect x="27" y="1.5" width="14" height="10.5" rx="1.6" fill="#E2E8F0"/>
    <rect x="31" y="10.5" width="6" height="3.4" rx="1" fill="#E2E8F0"/>
    <g fill="#F5C24B"><rect x="28.6" y="2.7" width="1.5" height="3" rx=".5"/><rect x="31.1" y="2.7" width="1.5" height="3" rx=".5"/><rect x="33.6" y="2.7" width="1.5" height="3" rx=".5"/><rect x="36.1" y="2.7" width="1.5" height="3" rx=".5"/></g>
  </g>
  <text x="206" y="128" font-family="'Sora',Arial,sans-serif" font-size="46" font-weight="800" fill="#fff">ConnectWorks</text>
  <text x="208" y="162" font-family="'Inter',Arial,sans-serif" font-size="18" font-weight="600" letter-spacing="6" fill="#7DD3FC">LOW VOLTAGE SOLUTIONS</text>

  <text x="96" y="312" font-family="'Sora',Arial,sans-serif" font-size="58" font-weight="800" fill="#fff">Commercial Low Voltage &amp;</text>
  <text x="96" y="380" font-family="'Sora',Arial,sans-serif" font-size="58" font-weight="800" fill="#fff">Security for <tspan fill="#38BDF8">San Diego Businesses</tspan></text>
  <text x="96" y="438" font-family="'Inter',Arial,sans-serif" font-size="25" font-weight="500" fill="#CBD5E1">Cameras · Access Control · Cabling · Business Wi-Fi · Intercom · AV</text>

  <g transform="translate(96,492)">
    <rect width="330" height="62" rx="14" fill="url(#cwBlue)"/>
    <text x="165" y="40" text-anchor="middle" font-family="'Sora',Arial,sans-serif" font-size="23" font-weight="700" fill="#fff">Request a Commercial Quote</text>
    <text x="362" y="40" font-family="'Inter',Arial,sans-serif" font-size="24" font-weight="700" fill="#fff">Call 619-786-1810</text>
  </g>

  <g transform="translate(940,470)" font-family="'Inter',Arial,sans-serif" font-size="19" font-weight="600" fill="#7DD3FC">
    <text x="0" y="0">10+ Years Experience</text>
    <text x="0" y="38">1-Year Labor &amp; Equipment Warranty</text>
    <text x="0" y="76">Serving San Diego County</text>
  </g>
</svg>
