<svg xmlns="http://www.w3.org/2000/svg" viewBox="0 0 480 360" role="img" aria-label="Access control keypad and card reader">
  <defs>
    <linearGradient id="g4" x1="0" y1="0" x2="1" y2="1"><stop offset="0" stop-color="#08142E"/><stop offset="1" stop-color="#0B3E9E"/></linearGradient>
    <pattern id="d4" width="26" height="26" patternUnits="userSpaceOnUse"><circle cx="2" cy="2" r="1.3" fill="#7DD3FC" fill-opacity=".18"/></pattern>
  </defs>
  <rect width="480" height="360" fill="url(#g4)"/><rect width="480" height="360" fill="url(#d4)"/>
  <rect x="120" y="46" width="150" height="268" rx="10" fill="#0A1B3D" stroke="#CFE6FF" stroke-width="3"/>
  <circle cx="250" cy="180" r="6" fill="#5AB0F5"/>
  <rect x="300" y="120" width="118" height="160" rx="14" fill="#0E2A57" stroke="#38BDF8" stroke-width="3"/>
  <g fill="#7DD3FC">
    <circle cx="330" cy="156" r="7"/><circle cx="359" cy="156" r="7"/><circle cx="388" cy="156" r="7"/>
    <circle cx="330" cy="186" r="7"/><circle cx="359" cy="186" r="7"/><circle cx="388" cy="186" r="7"/>
    <circle cx="330" cy="216" r="7"/><circle cx="359" cy="216" r="7"/><circle cx="388" cy="216" r="7"/>
  </g>
  <g transform="translate(340,238)" stroke="#38BDF8" stroke-width="3.4" fill="none" stroke-linecap="round" stroke-linejoin="round">
    <rect x="6" y="14" width="26" height="20" rx="3"/>
    <path d="M11 14v-5a8 8 0 0 1 16 0v5"/>
  </g>
</svg>
