<svg xmlns="http://www.w3.org/2000/svg" viewBox="0 0 480 360" role="img" aria-label="Structured cabling and patch panel">
  <defs>
    <linearGradient id="g3" x1="0" y1="0" x2="1" y2="1"><stop offset="0" stop-color="#08142E"/><stop offset="1" stop-color="#0B3E9E"/></linearGradient>
    <pattern id="d3" width="26" height="26" patternUnits="userSpaceOnUse"><circle cx="2" cy="2" r="1.3" fill="#7DD3FC" fill-opacity=".18"/></pattern>
  </defs>
  <rect width="480" height="360" fill="url(#g3)"/><rect width="480" height="360" fill="url(#d3)"/>
  <rect x="70" y="70" width="340" height="62" rx="8" fill="#0A1B3D" stroke="#CFE6FF" stroke-width="3"/>
  <g fill="#0E2A57" stroke="#5AB0F5" stroke-width="2">
    <rect x="86" y="86" width="22" height="30" rx="3"/><rect x="116" y="86" width="22" height="30" rx="3"/>
    <rect x="146" y="86" width="22" height="30" rx="3"/><rect x="176" y="86" width="22" height="30" rx="3"/>
    <rect x="206" y="86" width="22" height="30" rx="3"/><rect x="236" y="86" width="22" height="30" rx="3"/>
    <rect x="266" y="86" width="22" height="30" rx="3"/><rect x="296" y="86" width="22" height="30" rx="3"/>
    <rect x="326" y="86" width="22" height="30" rx="3"/><rect x="356" y="86" width="22" height="30" rx="3"/>
  </g>
  <g fill="none" stroke-width="4" stroke-linecap="round" opacity=".95">
    <path d="M97 116 C97 200 150 210 150 300" stroke="#38BDF8"/>
    <path d="M157 116 C157 210 200 230 200 300" stroke="#7DD3FC"/>
    <path d="M217 116 C217 220 250 240 250 300" stroke="#38BDF8"/>
    <path d="M277 116 C277 210 300 240 300 300" stroke="#5AB0F5"/>
    <path d="M337 116 C337 220 350 250 350 300" stroke="#7DD3FC"/>
  </g>
</svg>
