<svg xmlns="http://www.w3.org/2000/svg" viewBox="0 0 480 360" role="img" aria-label="Video intercom and communication station">
  <defs>
    <linearGradient id="g5" x1="0" y1="0" x2="1" y2="1"><stop offset="0" stop-color="#08142E"/><stop offset="1" stop-color="#0B3E9E"/></linearGradient>
    <pattern id="d5" width="26" height="26" patternUnits="userSpaceOnUse"><circle cx="2" cy="2" r="1.3" fill="#7DD3FC" fill-opacity=".18"/></pattern>
  </defs>
  <rect width="480" height="360" fill="url(#g5)"/><rect width="480" height="360" fill="url(#d5)"/>
  <rect x="165" y="50" width="150" height="260" rx="16" fill="#0A1B3D" stroke="#CFE6FF" stroke-width="3"/>
  <rect x="186" y="74" width="108" height="96" rx="8" fill="#0E2A57" stroke="#38BDF8" stroke-width="2.5"/>
  <circle cx="240" cy="92" r="6" fill="#5AB0F5"/>
  <g fill="#7DD3FC">
    <circle cx="200" cy="206" r="8"/><circle cx="240" cy="206" r="8"/><circle cx="280" cy="206" r="8"/>
    <circle cx="200" cy="240" r="8"/><circle cx="240" cy="240" r="8"/><circle cx="280" cy="240" r="8"/>
  </g>
  <g stroke="#38BDF8" stroke-width="3" fill="none" opacity=".8">
    <path d="M196 280h88"/>
  </g>
  <g stroke="#38BDF8" stroke-width="3.4" fill="none" stroke-linecap="round">
    <path d="M330 120a40 40 0 0 1 0 56"/>
    <path d="M348 104a64 64 0 0 1 0 88" opacity=".6"/>
  </g>
</svg>
