<svg xmlns="http://www.w3.org/2000/svg" viewBox="0 0 480 360" role="img" aria-label="Network rack and structured cabling">
  <defs>
    <linearGradient id="g1" x1="0" y1="0" x2="1" y2="1"><stop offset="0" stop-color="#08142E"/><stop offset="1" stop-color="#0B3E9E"/></linearGradient>
    <pattern id="d1" width="26" height="26" patternUnits="userSpaceOnUse"><circle cx="2" cy="2" r="1.3" fill="#7DD3FC" fill-opacity=".18"/></pattern>
  </defs>
  <rect width="480" height="360" fill="url(#g1)"/><rect width="480" height="360" fill="url(#d1)"/>
  <g transform="translate(150,52)" stroke="#CFE6FF" stroke-width="3" fill="none" stroke-linejoin="round">
    <rect x="0" y="0" width="180" height="256" rx="8" fill="#0A1B3D"/>
    <g fill="#0E2A57" stroke="#5AB0F5">
      <rect x="16" y="18" width="148" height="30" rx="4"/>
      <rect x="16" y="58" width="148" height="30" rx="4"/>
      <rect x="16" y="98" width="148" height="44" rx="4"/>
      <rect x="16" y="152" width="148" height="30" rx="4"/>
      <rect x="16" y="192" width="148" height="46" rx="4"/>
    </g>
    <g fill="#38BDF8" stroke="none">
      <circle cx="30" cy="33" r="3"/><circle cx="44" cy="33" r="3"/>
      <circle cx="30" cy="73" r="3"/><circle cx="44" cy="73" r="3"/>
    </g>
    <g stroke="#38BDF8" stroke-width="3.4" opacity=".9">
      <path d="M150 113c40 6 40 60 0 66"/>
      <path d="M150 123c52 6 52 50 0 56"/>
    </g>
    <g stroke="#7DD3FC" stroke-width="3.4" opacity=".7">
      <path d="M150 130c34 8 34 40 0 48"/>
    </g>
  </g>
</svg>
