<svg xmlns="http://www.w3.org/2000/svg" viewBox="0 0 480 360" role="img" aria-label="ConnectWorks service van on site">
  <defs>
    <linearGradient id="g6" x1="0" y1="0" x2="1" y2="1"><stop offset="0" stop-color="#08142E"/><stop offset="1" stop-color="#0B3E9E"/></linearGradient>
    <pattern id="d6" width="26" height="26" patternUnits="userSpaceOnUse"><circle cx="2" cy="2" r="1.3" fill="#7DD3FC" fill-opacity=".18"/></pattern>
  </defs>
  <rect width="480" height="360" fill="url(#g6)"/><rect width="480" height="360" fill="url(#d6)"/>
  <g stroke="#CFE6FF" stroke-width="3.4" fill="#0A1B3D" stroke-linejoin="round" stroke-linecap="round">
    <path d="M60 130 h210 v110 h-210 z"/>
    <path d="M270 160 h70 l50 46 v34 h-120 z"/>
    <path d="M290 168 h40 l34 32 h-74 z" fill="#0E2A57"/>
  </g>
  <g fill="#0A1B3D" stroke="#38BDF8" stroke-width="6">
    <circle cx="135" cy="248" r="26"/>
    <circle cx="320" cy="248" r="26"/>
  </g>
  <g fill="#38BDF8"><circle cx="135" cy="248" r="6"/><circle cx="320" cy="248" r="6"/></g>
  <g transform="translate(96,168)">
    <g transform="translate(0,4)" fill="none" stroke="#38BDF8" stroke-width="3.2" stroke-linecap="round" stroke-linejoin="round">
      <path d="M16 14 L16 2"/><path d="M16 14 L4 26"/><path d="M16 14 L28 26"/>
    </g>
    <g fill="#38BDF8"><circle cx="16" cy="18" r="4"/><circle cx="16" cy="6" r="3"/><circle cx="4" cy="30" r="3"/><circle cx="28" cy="30" r="3"/></g>
    <text x="44" y="22" font-family="'Sora',Arial,sans-serif" font-size="22" font-weight="800" fill="#fff">ConnectWorks</text>
    <text x="45" y="40" font-family="'Inter',Arial,sans-serif" font-size="9.5" letter-spacing="2.5" font-weight="600" fill="#7DD3FC">LOW VOLTAGE SOLUTIONS</text>
  </g>
</svg>
